<?xml version="1.0" encoding="utf-8"?>
<!-- Generator: Adobe Illustrator 21.0.0, SVG Export Plug-In . SVG Version: 6.00 Build 0)  -->
<svg version="1.1" id="Слой_1" xmlns="http://www.w3.org/2000/svg" xmlns:xlink="http://www.w3.org/1999/xlink" x="0px" y="0px"
	 width="6px" height="10px" viewBox="0 0 6 10" style="enable-background:new 0 0 6 10;" xml:space="preserve">
<path d="M5.8,4.6L1,0.2C0.9,0.1,0.8,0,0.6,0C0.4,0,0.3,0.1,0.2,0.2C0.1,0.3,0,0.4,0,0.5c0,0.1,0.1,0.3,0.2,0.4L4.6,5L0.2,9.1
	C0.1,9.2,0,9.3,0,9.4c0,0.1,0.1,0.3,0.2,0.4C0.3,9.9,0.4,10,0.6,10C0.8,10,0.9,9.9,1,9.8l4.8-4.4C5.9,5.3,6,5.1,6,5
	C6,4.8,5.9,4.7,5.8,4.6z"/>
</svg>
