<?xml version="1.0" encoding="utf-8"?>
<!-- Generator: Adobe Illustrator 21.0.0, SVG Export Plug-In . SVG Version: 6.00 Build 0)  -->
<svg version="1.1" id="Слой_1" xmlns="http://www.w3.org/2000/svg" xmlns:xlink="http://www.w3.org/1999/xlink" x="0px" y="0px"
	 width="9px" height="16px" viewBox="0 0 9 16" style="enable-background:new 0 0 9 16;" xml:space="preserve">
<style type="text/css">
	.st0{fill:#FFFFFF;}
</style>
<path class="st0" d="M8.7,7.4L1.5,0.3C1.4,0.1,1.1,0,0.9,0S0.4,0.1,0.3,0.3C0.1,0.4,0,0.6,0,0.9s0.1,0.5,0.3,0.6L6.8,8l-6.6,6.5
	C0.1,14.7,0,14.9,0,15.1c0,0.2,0.1,0.5,0.3,0.6C0.4,15.9,0.7,16,0.9,16c0.2,0,0.5-0.1,0.6-0.3l7.2-7.1C8.9,8.5,9,8.2,9,8
	S8.9,7.5,8.7,7.4z"/>
</svg>
